# AST/ASF file generated using VICON BodyLanguage
# -----------------------------------------------
:version 1.10
:name VICON
:units
  mass 1.0
  length 0.45
  angle deg
:documentation
   .ast/.asf automatically generated from VICON data using
   VICON BodyBuilder and BodyLanguage model FoxedUp or BRILLIANT.MOD
:root
   order TX TY TZ RX RY RZ
   axis XYZ
   position 0 0 0  
   orientation 0 0 0 
:bonedata
  begin
     id 1 
     name lhipjoint
     direction 0.62366 -0.717238 0.310833 
     length 2.53602 
     axis 0 0 0  XYZ
  end
  begin
     id 2 
     name lfemur
     direction 0.34202 -0.939693 0  
     length 7.40817  
     axis 0 0 20  XYZ
    dof rx ry rz
    limits (-160.0 20.0)
           (-70.0 70.0)
           (-60.0 70.0)
  end
  begin
     id 3 
     name ltibia
     direction 0.34202 -0.939693 0   
     length 7.7045   
     axis 0 0 20   XYZ
    dof rx
    limits (-10.0 170.0)
  end
  begin
     id 4 
     name lfoot
     direction 0.0673888 -0.185149 0.980397   
     length 2.09456   
     axis -90 7.62852e-016 20   XYZ
    dof rx rz
    limits (-45.0 90.0)
           (-70.0 20.0)
  end
  begin
     id 5 
     name ltoes
     direction 1.53575e-011 -4.21994e-011 1   
     length 1.05543   
     axis -90 7.62852e-016 20   XYZ
    dof rx
    limits (-90.0 20.0)
  end
  begin
     id 6 
     name rhipjoint
     direction -0.489018 -0.800347 0.346851   
     length 2.27268  
     axis 0 0 0  XYZ 
  end
  begin
     id 7 
     name rfemur
     direction -0.34202 -0.939693 0   
     length 7.55487   
     axis 0 0 -20   XYZ
    dof rx ry rz
    limits (-160.0 20.0)
           (-70.0 70.0)
           (-70.0 60.0)
  end
  begin
     id 8 
     name rtibia
     direction -0.34202 -0.939693 0   
     length 7.78969   
     axis 0 0 -20   XYZ
    dof rx
    limits (-10.0 170.0)
 end
 begin
     id 9 
     name rfoot
     direction -0.0859318 -0.236096 0.967923   
     length 2.19143  
     axis -90 -7.62852e-016 -20   XYZ
    dof rx rz
    limits (-45.0 90.0)
           (-20.0 70.0)
  end
  begin
     id 10 
     name rtoes
     direction -1.53538e-011 -4.21989e-011 1   
     length 1.09845   
     axis -90 -7.62852e-016 -20   XYZ
    dof rx
    limits (-90.0 20.0)
  end
  begin
     id 11 
     name lowerback
     direction -0.00762546 0.998978 -0.0445553   
     length 1.98161   
     axis 0 0 0   XYZ
    dof rx ry rz
    limits (-20.0 45.0)
           (-30.0 30.0)
           (-30.0 30.0)
  end
  begin
     id 12 
     name upperback
     direction 0.0422361 0.998867 -0.0219156   
     length 1.97558   
     axis 0 0 0   XYZ
    dof rx ry rz
    limits (-20.0 45.0)
           (-30.0 30.0)
           (-30.0 30.0)
  end
  begin
     id 13 
     name thorax
     direction 0.0442465 0.999021 7.47603e-005   
     length 1.97799   
     axis 0 0 0   XYZ
    dof rx ry rz
    limits (-20.0 45.0)
           (-30.0 30.0)
           (-30.0 30.0)
  end
  begin
     id 14 
     name lowerneck
     direction 0.00312169 0.984641 0.174564   
     length 1.78995   
     axis 0 0 0   XYZ
    dof rx ry rz
    limits (-20.0 45.0)
           (-30.0 30.0)
           (-30.0 30.0)
  end
  begin
     id 15 
     name upperneck
     direction -0.0383028 0.985255 -0.166749   
     length 1.83053   
     axis 0 0 0   XYZ
    dof rx ry rz
    limits (-20.0 45.0)
           (-30.0 30.0)
           (-30.0 30.0)
  end
  begin
     id 16
     name head
     direction -0.0129546 0.997059 -0.0755386  
     length 1.84088  
     axis 0 0 0   XYZ
    dof rx ry rz
    limits (-20.0 45.0)
           (-30.0 30.0)
           (-30.0 30.0)
  end
  begin
     id 17 
     name lclavicle
     direction 0.912857 0.370519 -0.171488  
     length 3.51279  
     axis 0 0 0   XYZ
    dof ry rz
    limits (-20.0 10.0)
           (0.0 20.0)
  end
  begin
     id 18 
     name lhumerus
     direction 1 -4.48962e-011 3.64361e-027   
     length 4.95663   
     axis 180 -30 -90   XYZ
    dof rx ry rz
    limits (-60.0 90.0)
           (-90.0 90.0)
           (-90.0 90.0)
  end
  begin
     id 19
     name lradius
     direction 1 -4.48974e-011 5.97202e-027   
     length 3.38177   
     axis 180 -30 -90   XYZ
    dof rx
    limits (-10.0 170.0)
  end
  begin
     id 20
     name lwrist
     direction 1 -4.4896e-011 9.83288e-027   
     length 1.69088   
     axis -9.31221e-015 90 90   XYZ
    dof ry
    limits (-180.0 0.0)
 end
  begin
     id 21 
     name lhand
     direction 1 -4.4902e-011 1.96551e-026   
     length 0.662909   
     axis -1.25475e-014 90 90   XYZ
    dof rx rz
    limits (-90.0 90.0)
           (-45.0 45.0)
  end
  begin
     id 22 
     name lfingers
     direction 1 -4.48971e-011 3.93277e-026   
     length 0.534454   
     axis -2.50945e-014 90 90   XYZ
    dof rx
    limits (0.0 90.0)
  end
  begin
     id 23
     name lthumb
     direction 0.707107 -6.34933e-011 0.707107   
     length 0.767373   
     axis -90 45 -4.80359e-014   XYZ
    dof rx rz
    limits (-45.0 45.0)
           (-45.0 45.0)
  end
  begin
     id 24 
     name rclavicle
     direction -0.900919 0.395364 -0.178976   
     length 3.40627  
     axis 0 0 0   XYZ 
    dof ry rz
    limits (-10.0 20.0)
           (-20.0 0.0)
  end
  begin
     id 25 
     name rhumerus
     direction -1 -4.48969e-011 1.03875e-027  
     length 5.08365   
     axis 180 30 90   XYZ
    dof rx ry rz
    limits (-90.0 60.0)
           (-90.0 90.0)
           (-90.0 90.0)
  end
  begin
     id 26 
     name rradius
     direction -1 -4.48951e-011 5.02733e-027   
     length 3.35984   
     axis 180 30 90   XYZ
    dof rx
    limits (-10.0 170.0)
  end
  begin
     id 27 
     name rwrist
     direction -1 -4.49011e-011 9.82828e-027   
     length 1.67992   
     axis -9.31221e-015 -90 -90   XYZ
    dof ry
    limits (-180.0 0.0)
  end
  begin
     id 28
     name rhand
     direction -1 -4.48894e-011 1.96774e-026   
     length 0.820764   
     axis -1.25475e-014 -90 -90   XYZ
    dof rx rz
    limits (-90.0 90.0)
           (-45.0 45.0)
  end
  begin
     id 29
     name rfingers
     direction -1 -4.49095e-011 3.92833e-026   
     length 0.661721   
     axis -2.50945e-014 -90 -90   XYZ
    dof rx
    limits (0.0 90.0)
  end
  begin
     id 30
     name rthumb
     direction -0.707107 -6.34881e-011 0.707107   
     length 0.950103   
     axis -90 -45 4.80359e-014   XYZ
    dof rx rz
    limits (-45.0 45.0)
           (-45.0 45.0)
  end
:hierarchy
  begin
    root lhipjoint rhipjoint lowerback
    lhipjoint lfemur
    lfemur ltibia
    ltibia lfoot
    lfoot ltoes
    rhipjoint rfemur
    rfemur rtibia
    rtibia rfoot
    rfoot rtoes
    lowerback upperback
    upperback thorax
    thorax lowerneck lclavicle rclavicle
    lowerneck upperneck
    upperneck head
    lclavicle lhumerus
    lhumerus lradius
    lradius lwrist
    lwrist lhand lthumb
    lhand lfingers
    rclavicle rhumerus
    rhumerus rradius
    rradius rwrist
    rwrist rhand rthumb
    rhand rfingers
  end

#!OML:ASF I:\golf\golf\golf 2\Subject 1\2002-09-07\Subject1.ASF
:FULLY-SPECIFIED
:DEGREES
130
root 1.78559 17.7264 -7.18301 12.5741 -3.46397 -6.98482
lowerback 1.18061 1.61354 -2.54355
upperback 3.47798 2.0664 4.57523
thorax 2.66947 0.900333 6.20368
lowerneck -15.3181 0.554154 0.365263
upperneck 42.3829 4.20606 -7.76962
head 18.9859 0.673171 -2.99097
rclavicle 6.26172e-015 -3.89618e-014
rhumerus -20.83 7.44016 -84.4554
rradius 29.562
rwrist -9.7341
rhand -21.314 13.0051
rfingers 7.12502
rthumb 5.07118 -16.9142
lclavicle 6.26172e-015 -3.89618e-014
lhumerus -21.6673 -6.3855 89.0907
lradius 31.3297
lwrist 5.40949
lhand -13.0478 30.8584
lfingers 7.12502
lthumb 13.0471 60.4304
rfemur -33.2824 -2.93968 22.4716
rtibia 53.4969
rfoot -11.1803 -7.3327
rtoes -1.02886
lfemur -24.6351 3.64276 -16.2452
ltibia 38.9121
lfoot -22.4124 1.51459
ltoes -1.45403
131
root 1.78707 17.7314 -7.16237 12.5445 -3.24753 -7.08592
lowerback 1.38288 1.63664 -2.41504
upperback 3.55341 2.09382 4.57855
thorax 2.63424 0.916735 6.12851
lowerneck -15.2219 0.49161 0.453469
upperneck 42.3404 4.07319 -7.77378
head 18.9209 0.638092 -3.03059
rclavicle 6.75868e-015 1.47101e-014
rhumerus -20.709 7.39768 -84.41
rradius 29.583
rwrist -9.74704
rhand -21.3696 13.0658
rfingers 7.12502
rthumb 5.01743 -16.8548
lclavicle 6.75868e-015 1.47101e-014
lhumerus -21.6939 -6.42781 88.9775
lradius 31.5135
lwrist 5.00796
lhand -12.882 31.1332
lfingers 7.12502
lthumb 13.207 60.6948
rfemur -33.5944 -2.96613 22.6487
rtibia 53.5896
rfoot -11.476 -7.61432
rtoes 0.15323
lfemur -24.5561 3.74128 -16.1159
ltibia 38.8605
lfoot -22.4371 1.22859
ltoes -1.23977
132
root 1.78948 17.7294 -7.1444 12.5194 -3.08975 -7.02583
lowerback 1.59467 1.6601 -2.57359
upperback 3.63633 2.12179 4.64609
thorax 2.59064 0.92515 6.28588
lowerneck -15.1707 0.470668 0.447158
upperneck 42.3162 4.06141 -7.81807
head 18.8922 0.629662 -3.0505
rclavicle 2.28602e-014 2.94201e-014
rhumerus -20.563 7.49841 -84.2081
rradius 29.6161
rwrist -9.76227
rhand -21.4608 13.3044
rfingers 7.12502
rthumb 4.92945 -16.6182
lclavicle 2.28602e-014 2.94201e-014
lhumerus -21.7172 -6.58777 89.0785
lradius 31.6684
lwrist 5.1469
lhand -13.0219 30.9941
lfingers 7.12502
lthumb 13.0721 60.5644
rfemur -33.9414 -3.11915 22.663
rtibia 53.6033
rfoot -11.4711 -7.90006
rtoes -0.0933619
lfemur -24.4607 3.72089 -16.1707
ltibia 38.8135
lfoot -22.4744 1.01889
ltoes -0.743122
133
root 1.79042 17.7243 -7.12819 12.6082 -2.83379 -6.91072
lowerback 1.77097 1.63966 -2.63072
upperback 3.66976 2.09371 4.60469
thorax 2.52926 0.911074 6.26962
lowerneck -15.1662 0.440321 0.442812
upperneck 42.3654 3.99702 -7.76104
head 18.9133 0.612116 -3.037
rclavicle -3.99557e-014 -5.1684e-014
rhumerus -20.3752 7.46118 -84.1618
rradius 29.6031
rwrist -9.75952
rhand -21.5659 13.6997
rfingers 7.12502
rthumb 4.82798 -16.2253
lclavicle -3.99557e-014 -5.1684e-014
lhumerus -21.7152 -7.00155 89.0978
lradius 31.8597
lwrist 5.80124
lhand -13.1572 30.7791
lfingers 7.12502
lthumb 12.9416 60.3578
rfemur -34.4196 -3.37861 22.6743
rtibia 53.5145
rfoot -11.4326 -8.16732
rtoes -0.400212
lfemur -24.5217 3.54581 -16.2585
ltibia 38.7795
lfoot -22.5187 0.883918
ltoes -0.863184
134
root 1.79143 17.7235 -7.10972 12.7372 -2.51178 -6.94878
lowerback 1.85565 1.60063 -2.6045
upperback 3.73286 2.03833 4.67733
thorax 2.55292 0.881003 6.33081
lowerneck -15.1885 0.37743 0.250446
upperneck 42.3731 3.92865 -7.66136
head 18.9109 0.567833 -2.96585
rclavicle 1.49089e-014 2.38542e-015
rhumerus -20.1342 7.54757 -84.0177
rradius 29.6455
rwrist -9.80301
rhand -21.2339 13.1692
rfingers 7.12502
rthumb 5.14854 -16.7482
lclavicle 1.49089e-014 2.38542e-015
lhumerus -21.5738 -7.24283 89.1793
lradius 31.9997
lwrist 6.23021
lhand -13.1878 30.8498
lfingers 7.12502
lthumb 12.9122 60.4303
rfemur -34.898 -3.67742 22.8853
rtibia 53.3012
rfoot -11.5163 -8.39787
rtoes 0.00474334
lfemur -24.6487 3.49215 -16.1859
ltibia 38.753
lfoot -22.5815 0.688887
ltoes -1.52612
135
root 1.79306 17.7281 -7.08707 12.7931 -2.29516 -7.00959
lowerback 1.98172 1.60547 -2.48949
upperback 3.84779 2.04112 4.68981
thorax 2.60413 0.881535 6.27696
lowerneck -15.2448 0.332589 0.18518
upperneck 42.3288 3.85904 -7.60613
head 18.8891 0.53769 -2.93733
rclavicle 2.45499e-014 -6.36111e-015
rhumerus -19.8616 7.59456 -83.9253
rradius 29.7307
rwrist -9.75833
rhand -20.5747 11.839
rfingers 7.12502
rthumb 5.78499 -18.062
lclavicle 2.45499e-014 -6.36111e-015
lhumerus -21.3199 -7.48946 89.143
lradius 32.0071
lwrist 6.46367
lhand -13.2355 30.7983
lfingers 7.12502
lthumb 12.8662 60.3817
rfemur -35.2453 -3.89416 23.0737
rtibia 52.9604
rfoot -11.53 -8.54063
rtoes -0.283726
lfemur -24.6624 3.56423 -16.1236
ltibia 38.7304
lfoot -22.6649 0.484963
ltoes -1.68851
136
root 1.7933 17.733 -7.06324 12.895 -2.13976 -7.0776
lowerback 2.12692 1.63902 -2.34008
upperback 3.9163 2.08452 4.65654
thorax 2.59366 0.906692 6.15258
lowerneck -15.2967 0.301351 0.286917
upperneck 42.3114 3.7844 -7.62492
head 18.8885 0.522927 -2.97891
rclavicle 1.74931e-014 2.46493e-014
rhumerus -19.6435 7.58437 -83.8996
rradius 29.7661
rwrist -9.67427
rhand -20.5612 11.5753
rfingers 7.12502
rthumb 5.798 -18.3254
lclavicle 1.74931e-014 2.46493e-014
lhumerus -21.2535 -7.75367 89.0557
lradius 32.093
lwrist 6.65806
lhand -13.2073 30.7076
lfingers 7.12502
lthumb 12.8933 60.2894
rfemur -35.629 -3.98544 23.261
rtibia 52.5208
rfoot -11.5637 -8.69064
rtoes -1.09077
lfemur -24.6992 3.5459 -16.041
ltibia 38.7082
lfoot -22.7358 0.36203
ltoes -1.47338
137
root 1.79415 17.7337 -7.04335 13.0473 -1.93058 -7.0704
lowerback 2.33251 1.66241 -2.27924
upperback 3.93467 2.11546 4.64022
thorax 2.49566 0.92614 6.09351
lowerneck -15.4346 0.264436 0.240137
upperneck 42.3714 3.71382 -7.52653
head 18.9543 0.499446 -2.94097
rclavicle -5.76476e-015 1.19271e-014
rhumerus -19.4785 7.50312 -83.8234
rradius 29.7939
rwrist -9.59988
rhand -21.1706 12.4809
rfingers 7.12502
rthumb 5.2096 -17.4351
lclavicle -5.76476e-015 1.19271e-014
lhumerus -21.3395 -7.99496 89.0698
lradius 32.3144
lwrist 6.82414
lhand -13.1697 30.9078
lfingers 7.12502
lthumb 12.9296 60.4872
rfemur -36.0993 -4.12361 23.403
rtibia 52.0232
rfoot -11.5943 -8.88593
rtoes -1.18192
lfemur -24.8154 3.43078 -16.0264
ltibia 38.6714
lfoot -22.7718 0.230687
ltoes -1.39984
138
root 1.79523 17.7339 -7.02379 13.1282 -1.72369 -7.01652
lowerback 2.6279 1.67649 -2.26267
upperback 3.98731 2.13288 4.6216
thorax 2.38332 0.937239 6.05537
lowerneck -15.5912 0.219122 0.138709
upperneck 42.4421 3.62612 -7.37239
head 19.0281 0.467168 -2.86979
rclavicle 7.45443e-015 4.81059e-014
rhumerus -19.2373 7.40024 -83.7386
rradius 29.7195
rwrist -9.54699
rhand -21.5961 13.0416
rfingers 7.12502
rthumb 4.79882 -16.884
lclavicle 7.45443e-015 4.81059e-014
lhumerus -21.3918 -8.20666 89.1098
lradius 32.5194
lwrist 6.97649
lhand -13.2713 31.0884
lfingers 7.12502
lthumb 12.8317 60.674
rfemur -36.5005 -4.26363 23.4666
rtibia 51.4714
rfoot -11.4752 -8.95456
rtoes -0.937808
lfemur -24.8497 3.32746 -16.0656
ltibia 38.6167
lfoot -22.7945 0.148717
ltoes -1.70635
139
root 1.79319 17.7336 -7.00185 13.1936 -1.58856 -7.03141
lowerback 2.90224 1.72307 -2.21102
upperback 4.04439 2.19387 4.60965
thorax 2.28321 0.9706 6.00425
lowerneck -15.5514 0.165382 0.242373
upperneck 42.3927 3.50868 -7.39151
head 18.9772 0.437853 -2.91694
rclavicle -2.61402e-014 8.34896e-015
rhumerus -19.0003 7.34921 -83.6621
rradius 29.6245
rwrist -9.55768
rhand -21.637 13.1399
rfingers 7.12502
rthumb 4.75926 -16.7867
lclavicle -2.61402e-014 8.34896e-015
lhumerus -21.5232 -8.54559 89.1529
lradius 32.7961
lwrist 7.19808
lhand -13.4985 31.1567
lfingers 7.12502
lthumb 12.6126 60.7559
rfemur -36.8813 -4.29675 23.5863
rtibia 50.8592
rfoot -11.3254 -8.90095
rtoes -0.991209
lfemur -24.8508 3.28034 -16.0219
ltibia 38.5689
lfoot -22.7996 0.169546
ltoes -2.21965
140
root 1.78947 17.7336 -6.98034 13.3239 -1.44573 -7.02249
lowerback 3.13524 1.7721 -2.20354
upperback 4.0643 2.25877 4.60868
thorax 2.16564 1.00575 5.99003
lowerneck -15.4687 0.10581 0.303222
upperneck 42.3289 3.40128 -7.42085
head 18.906 0.40506 -2.95737
rclavicle -2.71341e-014 -1.27222e-014
rhumerus -18.8783 7.44111 -83.5706
rradius 29.7041
rwrist -9.67504
rhand -21.5801 13.221
rfingers 7.12502
rthumb 4.81427 -16.7044
lclavicle -2.71341e-014 -1.27222e-014
lhumerus -21.792 -9.05143 89.2662
lradius 33.2231
lwrist 7.48735
lhand -13.8065 31.1839
lfingers 7.12502
lthumb 12.3157 60.8012
rfemur -37.3232 -4.32056 23.7115
rtibia 50.1795
rfoot -11.2802 -8.78561
rtoes -0.530904
lfemur -24.9485 3.26163 -16.0018
ltibia 38.5378
lfoot -22.7914 0.144399
ltoes -2.50997
141
root 1.78962 17.7362 -6.95934 13.5663 -1.28627 -7.01858
lowerback 3.25743 1.79213 -2.18024
upperback 4.08425 2.28486 4.63746
thorax 2.11452 1.01984 6.00277
lowerneck -15.517 0.0660193 0.183065
upperneck 42.3141 3.35625 -7.35159
head 18.9024 0.377847 -2.90905
rclavicle -1.66979e-014 -6.12257e-014
rhumerus -18.6946 7.61931 -83.4467
rradius 29.7854
rwrist -9.89909
rhand -21.5678 13.2441
rfingers 7.12502
rthumb 4.82609 -16.681
lclavicle -1.66979e-014 -6.12257e-014
lhumerus -22.0208 -9.51458 89.4384
lradius 33.6478
lwrist 7.73658
lhand -14.1789 31.2713
lfingers 7.12502
lthumb 11.9566 60.9099
rfemur -37.8633 -4.35161 23.8348
rtibia 49.4389
rfoot -11.3858 -8.53839
rtoes 1.08417
lfemur -25.1814 3.25176 -16.0125
ltibia 38.5124
lfoot -22.746 0.0710107
ltoes -2.42715
142
root 1.79084 17.7376 -6.93963 13.8398 -1.15997 -7.02684
lowerback 3.29813 1.82609 -2.15433
upperback 4.15683 2.32799 4.68308
thorax 2.16124 1.03899 6.03585
lowerneck -15.52 -0.00457783 0.0771716
upperneck 42.163 3.2788 -7.35902
head 18.801 0.331534 -2.89751
rclavicle -2.78299e-015 -7.55382e-015
rhumerus -18.3602 7.72519 -83.2522
rradius 29.7624
rwrist -10.0219
rhand -21.5971 13.2463
rfingers 7.12502
rthumb 4.79777 -16.6793
lclavicle -2.78299e-015 -7.55382e-015
lhumerus -22.1184 -10.0245 89.6583
lradius 34.0025
lwrist 7.87202
lhand -14.5173 31.6312
lfingers 7.12502
lthumb 11.6302 61.2885
rfemur -38.4392 -4.35963 23.9605
rtibia 48.6482
rfoot -11.2643 -8.34691
rtoes 1.16553
lfemur -25.434 3.21877 -16.0212
ltibia 38.4805
lfoot -22.6709 -0.0289195
ltoes -1.94008
